<mxfile host="app.diagrams.net" modified="2024-03-04T09:38:02.348Z" agent="Mozilla/5.0 (Windows NT 10.0; Win64; x64; rv:109.0) Gecko/20100101 Firefox/115.0" version="24.0.1" etag="4yb4dpqI-FQSt43HnRRy" type="github">
  <diagram name="Seite-1" id="t_KZIEOrnzz-CpnTngT-">
    <mxGraphModel>
      <root>
        <mxCell id="0" />
        <mxCell id="1" parent="0" />
      </root>
    </mxGraphModel>
  </diagram>
</mxfile>
